<svg xmlns="http://www.w3.org/2000/svg" xmlns:xlink="http://www.w3.org/1999/xlink" width="112.745" height="28.964" viewBox="0 0 112.745 28.964">
  <defs>
    <clipPath id="clip-path">
      <rect id="Rectangle_52173" data-name="Rectangle 52173" width="112.745" height="28.964" fill="#fff"/>
    </clipPath>
  </defs>
  <g id="Group_61459" data-name="Group 61459" transform="translate(0 0)">
    <g id="Group_61459-2" data-name="Group 61459" transform="translate(0 0)" clip-path="url(#clip-path)">
      <path id="Path_102480" data-name="Path 102480" d="M135.7,71.452h-4.635l-2.612-5.012q-.071-.118-.365-.659a10.034,10.034,0,0,0-.647-1.035v6.706H123.2V58.04h4.235v6.094a5.366,5.366,0,0,0,.694-.976q.294-.53.341-.624l2.518-4.494h4.471l-2.682,4.494q-.071.094-.306.494a6.481,6.481,0,0,1-.506.741,5.51,5.51,0,0,1-.577.624,5.171,5.171,0,0,1,.694.788q.27.388.623,1.023Z" transform="translate(-90.74 -42.747)" fill="#fff"/>
      <path id="Path_102481" data-name="Path 102481" d="M186.762,58.04v7.506a10.4,10.4,0,0,1-.506,3.635,3.394,3.394,0,0,1-1.894,1.917,10.426,10.426,0,0,1-4.047.612,11.363,11.363,0,0,1-3.294-.412,3.893,3.893,0,0,1-2.129-1.565,5.708,5.708,0,0,1-.788-3.247V58.04h4.235v7.553a10.37,10.37,0,0,0,.129,1.894,1.537,1.537,0,0,0,.6.989,2.45,2.45,0,0,0,1.435.341,4.975,4.975,0,0,0,1.106-.118,1.24,1.24,0,0,0,.706-.353,5.164,5.164,0,0,0,.212-2.047V58.04Z" transform="translate(-128.228 -42.747)" fill="#fff"/>
      <path id="Path_102482" data-name="Path 102482" d="M236.165,71.452h-5.294L227.413,58.04h4.518l1.788,9.859h.118l1.906-9.859h4.424l1.952,9.859h.071L244,58.04h4.329l-3.458,13.412H239.6L238,62.887h-.141Z" transform="translate(-167.49 -42.747)" fill="#fff"/>
      <rect id="Rectangle_52170" data-name="Rectangle 52170" width="4.235" height="13.412" transform="translate(82.369 15.293)" fill="#fff"/>
      <path id="Path_102483" data-name="Path 102483" d="M342.17,68.511h-3.906l-.706,2.941h-4.329l4.329-13.412h5.529l4.141,13.412h-4.353Zm-1.976-7.577L338.805,65.9h2.8l-1.318-4.965Z" transform="translate(-245.425 -42.747)" fill="#fff"/>
      <path id="Path_102484" data-name="Path 102484" d="M391.079,71.452h-4.235V60.981h-3.788V58.04h11.812v2.941h-3.789Z" transform="translate(-282.122 -42.747)" fill="#fff"/>
      <path id="Path_102485" data-name="Path 102485" d="M132.142.615l-2.166,10.5h-.116l-.84-4.077-4.065.035,1.893,6.961h6.138L136.612.615Zm-4.447,0H123.2l.857,3.144,4.227-.29Z" transform="translate(-90.738 -0.453)" fill="#fff"/>
      <rect id="Rectangle_52171" data-name="Rectangle 52171" width="4.235" height="13.412" transform="translate(47.075 0.165)" fill="#fff"/>
      <path id="Path_102486" data-name="Path 102486" d="M207.325,4.893a8.652,8.652,0,0,0,1.588.612,18,18,0,0,1,2.129.823A3.919,3.919,0,0,1,212.5,7.575a3.642,3.642,0,0,1,.624,2.212q0,4.377-5.694,4.376A19.506,19.506,0,0,1,205.137,14a22.932,22.932,0,0,1-2.459-.424q.047-.494.2-1.447a11.907,11.907,0,0,1,.294-1.423q.823.118,2.482.282t2.506.165a1.345,1.345,0,0,0,.588-.071.625.625,0,0,0,.223-.318,1.153,1.153,0,0,0,.082-.388.781.781,0,0,0-.447-.718,9.76,9.76,0,0,0-1.53-.6,14.343,14.343,0,0,1-2.141-.824,4.049,4.049,0,0,1-1.482-1.318,3.977,3.977,0,0,1-.635-2.353,4.732,4.732,0,0,1,.471-2.036,3.465,3.465,0,0,1,.965-1.353,4.773,4.773,0,0,1,1.553-.494,11.348,11.348,0,0,1,2.212-.235,15.543,15.543,0,0,1,4.306.494q-.024.471-.153,1.294T211.9,3.74l-.541-.024Q208.3,3.5,207.455,3.5a1.688,1.688,0,0,0-.4.023.4.4,0,0,0-.165.212.944.944,0,0,0-.071.376.861.861,0,0,0,.506.777" transform="translate(-149.273 -0.328)" fill="#fff"/>
      <rect id="Rectangle_52172" data-name="Rectangle 52172" width="4.235" height="13.412" transform="translate(65.828 0.165)" fill="#fff"/>
      <path id="Path_102487" data-name="Path 102487" d="M279.192,14.037h-4.235V3.566h-3.788V.625h11.812V3.566h-3.789Z" transform="translate(-199.717 -0.46)" fill="#fff"/>
      <path id="Path_102488" data-name="Path 102488" d="M62.9,48.169l1.118-4.436,1.071,4.291Z" transform="translate(-46.324 -32.21)" fill="#fff"/>
      <path id="Path_102489" data-name="Path 102489" d="M105.188,8.493,115.209,7.05l.713,1.115L105,8.883Z" transform="translate(-77.335 -5.192)" fill="#fff"/>
      <path id="Path_102490" data-name="Path 102490" d="M115.485,25.432l-11.075.886.6-1.21,10.614-.116Z" transform="translate(-76.899 -18.407)" fill="#fff"/>
      <path id="Path_102491" data-name="Path 102491" d="M28.867,0H0V10.261l5.426.011v1.969L0,12.809v.921l8.072-.515.492,2.368.579,2.785L10.8,11.274h1.934L9.978,23.012H6.8L5.466,16.77,0,16.677v12.2H28.867V6.671l-4.928.046,3.306,11.1v1.106l-4.789-.075,2.171,7.238-3,1.146L19.515,18.8l-6.549-.1,3.48-11.6H18.93L21.5,15.641l2.212-.145-2.3-9.2-.585-2.142,8.049-.544ZM19.115,20.042v2.669l-6.59-.689V20.053Z" transform="translate(0 0)" fill="#fff"/>
    </g>
  </g>
</svg>
